<svg version="1.1" viewBox="0 0 16 16" xmlns="http://www.w3.org/2000/svg">
    <path d="m0.457031 5.324219v8.488281h0.988281v-8.488281zm1.988281 0v8.488281h10.101563c1.578125 0 2.847656-1.269531 2.847656-2.851562v-2.789063c0-1.578125-1.269531-2.847656-2.847656-2.847656zm2.503907 0.996093c0.828125 0 1.5 0.671876 1.5 1.5 0 0.828126-0.671875 1.5-1.5 1.5-0.832031 0-1.5-0.671874-1.5-1.5 0-0.828124 0.667969-1.5 1.5-1.5zm4 0c0.828125 0 1.5 0.671876 1.5 1.5 0 0.828126-0.671875 1.5-1.5 1.5-0.832031 0-1.5-0.671874-1.5-1.5 0-0.828124 0.667969-1.5 1.5-1.5zm3.992187 0c0.828125 0 1.5 0.671876 1.5 1.5 0 0.828126-0.671875 1.5-1.5 1.5s-1.5-0.671874-1.5-1.5c0-0.828124 0.671875-1.5 1.5-1.5z" fill="#222"/>
    <g fill="none" stroke="#222" stroke-linecap="round" stroke-linejoin="round">
        <path d="m1.484375 2.699219h12.929687" stroke-width="2"/>
        <path d="m4.929688 3.597656v4.160156"/>
        <path d="m8.929688 3.597656v4.160156"/>
        <path d="m12.929688 3.597656v4.160156"/>
    </g>
</svg>
