<svg version="1.1" viewBox="0 0 128 128" xmlns="http://www.w3.org/2000/svg" xmlns:xlink="http://www.w3.org/1999/xlink">
    <linearGradient id="a" x1="88.595886" x2="536.59589" y1="-449.39401" y2="-449.39401" gradientTransform="matrix(.232143 0 0 .328947 -8.87281 264.08261)" gradientUnits="userSpaceOnUse">
        <stop stop-color="#63452c" offset="0"/>
        <stop stop-color="#986a44" offset=".0384615"/>
        <stop stop-color="#63452c" offset=".0768555"/>
        <stop stop-color="#63452c" offset=".923077"/>
        <stop stop-color="#986a44" offset=".961538"/>
        <stop stop-color="#63452c" offset="1"/>
    </linearGradient>
    <linearGradient id="b" x1="67.194099" x2="67.194099" y1="85.922241" y2="12.422241" gradientUnits="userSpaceOnUse">
        <stop stop-color="#986a44" offset="0"/>
        <stop stop-color="#63452c" offset="1"/>
    </linearGradient>
    <linearGradient id="c" x1="-463.53214" x2="-441.61182" y1="106.89175" y2="106.89175" gradientTransform="matrix(-0 -.970617 .47504 -0 37.862907 -364.3494)" gradientUnits="userSpaceOnUse">
        <stop stop-color="#b3a6a6" offset="0"/>
        <stop stop-color="#e9e5e5" offset=".759023"/>
        <stop stop-color="#b3a6a6" offset="1"/>
    </linearGradient>
    <linearGradient id="d" x1="-466.04163" x2="-439.7019" y1="95.874496" y2="95.874496" gradientTransform="matrix(-0 -.970617 .489644 -0 35.708157 -364.3494)" gradientUnits="userSpaceOnUse">
        <stop stop-color="#b3a6a6" offset="0"/>
        <stop stop-color="#e9e5e5" offset=".71787"/>
        <stop stop-color="#b3a6a6" offset="1"/>
    </linearGradient>
    <linearGradient id="e" x1="-252.4257" x2="-237.82045" y1="46.718304" y2="46.718304" gradientTransform="matrix(0 -1.982293 1.604843 0 -10.430584 -443.9476)" gradientUnits="userSpaceOnUse">
        <stop stop-color="#b3a6a6" offset="0"/>
        <stop stop-color="#e9e5e5" offset=".734927"/>
        <stop stop-color="#b3a6a6" offset="1"/>
    </linearGradient>
    <linearGradient id="f" gradientUnits="userSpaceOnUse">
        <stop stop-color="#454137" offset="0"/>
        <stop stop-color="#cccfd7" offset=".0493561"/>
        <stop stop-color="#a39f97" offset=".252073"/>
        <stop stop-color="#a39f97" offset=".748018"/>
        <stop stop-color="#c1c3c7" offset=".949426"/>
        <stop stop-color="#454137" offset="1"/>
    </linearGradient>
    <linearGradient id="g" x1="-125.42307" x2="-125.42307" y1="255.84009" y2="236.7482" gradientTransform="matrix(.936052 0 0 1.4396 139.91608 -312.32207)" xlink:href="#f"/>
    <linearGradient id="h" x1="-125.42307" x2="-125.42307" y1="255.84009" y2="236.7482" gradientTransform="matrix(.936052 0 0 1.4396 143.44003 -312.32207)" xlink:href="#f"/>
    <linearGradient id="i" gradientUnits="userSpaceOnUse">
        <stop stop-color="#fff" offset="0"/>
        <stop stop-color="#cccfd7" offset=".0861966"/>
        <stop stop-color="#a39f97" offset=".287424"/>
        <stop stop-color="#454137" offset=".495563"/>
        <stop stop-color="#a39f97" offset=".705554"/>
        <stop stop-color="#c1c3c7" offset=".925742"/>
        <stop stop-color="#fff" offset="1"/>
    </linearGradient>
    <linearGradient id="j" x1="-125.42307" x2="-125.42307" y1="255.84009" y2="236.7482" gradientTransform="matrix(.936052 0 0 1.4396 138.04398 -312.32207)" xlink:href="#i"/>
    <linearGradient id="k" x1="-125.42307" x2="-125.42307" y1="255.84009" y2="236.7482" gradientTransform="matrix(.936052 0 0 1.4396 141.56795 -312.32207)" xlink:href="#i"/>
    <linearGradient id="l" x1="-125.42307" x2="-125.42307" y1="255.84009" y2="236.7482" gradientTransform="matrix(.936052 0 0 1.4396 145.0919 -312.32207)" xlink:href="#i"/>
    <linearGradient id="m" x1="-260.72498" x2="-234.03268" y1="41.999107" y2="41.999107" gradientTransform="matrix(-0 -1 1 -0 .309178 -172)" gradientUnits="userSpaceOnUse">
        <stop stop-color="#b3a6a6" offset="0"/>
        <stop stop-color="#e9e5e5" offset=".675272"/>
        <stop stop-color="#b3a6a6" offset="1"/>
    </linearGradient>
    <linearGradient id="n" gradientUnits="userSpaceOnUse">
        <stop stop-color="#241f31" offset="0"/>
        <stop stop-color="#241f31" stop-opacity="0" offset="1"/>
    </linearGradient>
    <linearGradient id="o" x1="62.357124" x2="62.357124" y1="256.30194" y2="248.80777" gradientTransform="matrix(1.013672 0 0 1.837445 -.243488 -421.20573)" xlink:href="#n"/>
    <linearGradient id="p" gradientUnits="userSpaceOnUse">
        <stop stop-color="#b3a6a6" offset="0"/>
        <stop stop-color="#e9e5e5" offset=".5"/>
        <stop stop-color="#b3a6a6" offset="1"/>
    </linearGradient>
    <linearGradient id="q" x1="47.815994" x2="24.163916" y1="105.27179" y2="105.27179" xlink:href="#p"/>
    <linearGradient id="r" x1="103.41132" x2="78.831703" y1="104.80801" y2="104.80801" xlink:href="#p"/>
    <linearGradient id="s" x1="62.357124" x2="62.357124" y1="256.30194" y2="248.80777" gradientTransform="matrix(1.013672 0 0 1.837445 .220279 -389.77103)" xlink:href="#n"/>
    <path d="m19.695312 16.253906h88c4.417969 0 8 3.582032 8 8v84c0 4.421875-3.582031 8-8 8h-88c-4.417968 0-8-3.578125-8-8v-84c0-4.417968 3.582032-8 8-8z" fill="url(#a)"/>
    <path d="m18.828125 14.582031h88.949219c2.832031 0 5.128906 1.902344 5.128906 4.25v74.402344c0 2.347656-2.296875 4.25-5.128906 4.25h-88.949219c-2.832031 0-5.128906-1.902344-5.128906-4.25v-74.402344c0-2.347656 2.296875-4.25 5.128906-4.25z" fill="#241f31"/>
    <path d="m19.691406 12.339844c-4.429687 0-8 3.078125-8 6.902344v73.359374c0 3.824219 3.570313 6.90625 8 6.90625h88.003906c4.429688 0 8-3.082031 8-6.90625v-73.359374c0-3.824219-3.570312-6.902344-8-6.902344zm1.132813 3.492187h79.035156c0.640625 0.039063 2.351563 0.292969 2.351563 1.925781 0 2.261719 1.507812 3.632813 3.972656 3.632813h5.191406v70.457031c0 2.273438-2.199219 4.105469-4.9375 4.105469h-27.3125c-1.191406-0.082031-3.914062-0.535156-4.609375-2.914063-0.902344-3.074218-3.65625-3.109374-3.65625-3.109374h-5.507813s-2.445312-0.082032-3.429687 2.902343c-0.855469 2.574219-3.191406 3.046875-4.28125 3.121094h-36.816406c-2.738281 0-4.9375-1.832031-4.9375-4.105469v-71.910156c0-2.273438 2.199219-4.105469 4.9375-4.105469z" fill="url(#b)"/>
    <path d="m69.328125 77.378906v-4.910156c0-4.519531 3.660156-8.183594 8.179687-8.183594h22.265626c4.519531 0 8.179687 3.664063 8.179687 8.183594v4.910156c0 4.519532-3.660156 8.183594-8.179687 8.183594h-22.265626c-4.519531 0-8.179687-3.664062-8.179687-8.183594z" fill="url(#c)"/>
    <path d="m73.738281 86.011719v-21.59375c0-1.097657 0.886719-1.984375 1.984375-1.984375h13.859375c1.097657 0 1.984375 0.886718 1.984375 1.984375v21.59375c0 1.097656-0.886718 1.988281-1.984375 1.988281h-13.859375c-1.097656 0-1.984375-0.890625-1.984375-1.988281z" fill="url(#d)"/>
    <path d="m21.070312 27.480469v28.953125h76.203126c5.953124 0 10.746093-4.816406 10.746093-10.800782v-7.347656c0-5.984375-4.792969-10.804687-10.746093-10.804687z" fill="url(#e)"/>
    <path d="m21.355469 27.292969h2.648437v29.136719h-2.648437z" fill="url(#g)"/>
    <path d="m24.878906 27.292969h2.648438v29.136719h-2.648438z" fill="url(#h)"/>
    <path d="m19.484375 27.292969h2.644531v29.136719h-2.644531z" fill="url(#j)"/>
    <path d="m23.007812 27.292969h2.648438v29.136719h-2.648438z" fill="url(#k)"/>
    <path d="m26.53125 27.292969h2.648438v29.136719h-2.648438z" fill="url(#l)"/>
    <path d="m28.757812 62.03125c-5.183593 0-9.351562 4.171875-9.351562 9.355469v7.988281c0 5.179688 4.167969 9.351562 9.351562 9.351562h27.101563c6.066406 0-4.992187 0.003907 6.609375 0.003907v-2.730469s-0.101562-21.121094 0-21.242188v-2.707031h-6.070312c-0.179688-0.011719-0.355469-0.015625-0.539063-0.015625z" fill="url(#m)"/>
    <path d="m86.929688 70.605469c0 3.554687-1.746094 6.4375-3.898438 6.4375-2.148438 0-3.894531-2.882813-3.894531-6.4375 0-3.550781 1.746093-6.433594 3.894531-6.433594 2.152344 0 3.898438 2.882813 3.898438 6.433594z" fill="#77767b"/>
    <path d="m86.246094 72.246094c0 2.417968-1.429688 4.378906-3.195313 4.378906-1.761719 0-3.191406-1.960938-3.191406-4.378906 0-2.414063 1.429687-4.375 3.191406-4.375 1.765625 0 3.195313 1.960937 3.195313 4.375z" fill="#3d3846"/>
    <path d="m56.363281 67.695312c0 2.632813-2.136719 4.765626-4.769531 4.765626s-4.769531-2.132813-4.769531-4.765626c0-2.636718 2.136719-4.769531 4.769531-4.769531s4.769531 2.132813 4.769531 4.769531z" fill="#5e5c64"/>
    <path d="m56.363281 65.769531c0 2.632813-2.136719 4.765625-4.769531 4.765625s-4.769531-2.132812-4.769531-4.765625c0-2.632812 2.136719-4.769531 4.769531-4.769531s4.769531 2.136719 4.769531 4.769531z" fill="#f6f5f4"/>
    <path d="m44.09375 67.917969c0 2.632812-2.132812 4.765625-4.769531 4.765625-2.632813 0-4.765625-2.132813-4.765625-4.765625 0-2.636719 2.132812-4.769531 4.765625-4.769531 2.636719 0 4.769531 2.132812 4.769531 4.769531z" fill="#5e5c64"/>
    <path d="m44.09375 65.992188c0 2.632812-2.132812 4.769531-4.769531 4.769531-2.632813 0-4.765625-2.136719-4.765625-4.769531 0-2.632813 2.132812-4.769532 4.765625-4.769532 2.636719 0 4.769531 2.136719 4.769531 4.769532z" fill="#f6f5f4"/>
    <path d="m32.097656 67.773438c0 2.632812-2.136718 4.769531-4.769531 4.769531s-4.769531-2.136719-4.769531-4.769531c0-2.632813 2.136718-4.769532 4.769531-4.769532s4.769531 2.136719 4.769531 4.769532z" fill="#5e5c64"/>
    <path d="m32.097656 65.847656c0 2.632813-2.136718 4.769532-4.769531 4.769532s-4.769531-2.136719-4.769531-4.769532c0-2.632812 2.136718-4.769531 4.769531-4.769531s4.769531 2.136719 4.769531 4.769531z" fill="#f6f5f4"/>
    <path d="m64.480469 32.445312c0 2.632813-2.132813 4.765626-4.769531 4.765626-2.632813 0-4.765626-2.132813-4.765626-4.765626 0-2.636718 2.132813-4.769531 4.765626-4.769531 2.636718 0 4.769531 2.132813 4.769531 4.769531z" fill="#5e5c64"/>
    <path d="m64.480469 30.519531c0 2.632813-2.132813 4.765625-4.769531 4.765625-2.632813 0-4.765626-2.132812-4.765626-4.765625 0-2.632812 2.132813-4.769531 4.765626-4.769531 2.636718 0 4.769531 2.136719 4.769531 4.769531z" fill="#f6f5f4"/>
    <path d="m52.210938 32.667969c0 2.632812-2.132813 4.765625-4.765626 4.765625-2.632812 0-4.769531-2.132813-4.769531-4.765625 0-2.636719 2.136719-4.769531 4.769531-4.769531 2.632813 0 4.765626 2.132812 4.765626 4.769531z" fill="#5e5c64"/>
    <path d="m52.210938 30.742188c0 2.632812-2.132813 4.769531-4.765626 4.769531-2.632812 0-4.769531-2.136719-4.769531-4.769531 0-2.632813 2.136719-4.769532 4.769531-4.769532 2.632813 0 4.765626 2.136719 4.765626 4.769532z" fill="#f6f5f4"/>
    <path d="m40.214844 32.523438c0 2.632812-2.136719 4.769531-4.769532 4.769531-2.632812 0-4.769531-2.136719-4.769531-4.769531 0-2.632813 2.136719-4.769532 4.769531-4.769532 2.632813 0 4.769532 2.136719 4.769532 4.769532z" fill="#5e5c64"/>
    <path d="m40.214844 30.597656c0 2.632813-2.136719 4.769532-4.769532 4.769532-2.632812 0-4.769531-2.136719-4.769531-4.769532 0-2.632812 2.136719-4.769531 4.769531-4.769531 2.632813 0 4.769532 2.136719 4.769532 4.769531z" fill="#f6f5f4"/>
    <path d="m101.35547 32.070312c0 2.632813-2.132813 4.765626-4.769531 4.765626-2.632813 0-4.765626-2.132813-4.765626-4.765626 0-2.636718 2.132813-4.769531 4.765626-4.769531 2.636718 0 4.769531 2.132813 4.769531 4.769531z" fill="#5e5c64"/>
    <path d="m101.35547 30.144531c0 2.632813-2.132813 4.765625-4.769531 4.765625-2.632813 0-4.765626-2.132812-4.765626-4.765625 0-2.632812 2.132813-4.769531 4.765626-4.769531 2.636718 0 4.769531 2.136719 4.769531 4.769531z" fill="#f6f5f4"/>
    <path d="m89.085938 32.292969c0 2.632812-2.132813 4.765625-4.765626 4.765625-2.632812 0-4.769531-2.132813-4.769531-4.765625 0-2.636719 2.136719-4.769531 4.769531-4.769531 2.632813 0 4.765626 2.132812 4.765626 4.769531z" fill="#5e5c64"/>
    <path d="m89.085938 30.367188c0 2.632812-2.132813 4.769531-4.765626 4.769531-2.632812 0-4.769531-2.136719-4.769531-4.769531 0-2.632813 2.136719-4.769532 4.769531-4.769532 2.632813 0 4.765626 2.136719 4.765626 4.769532z" fill="#f6f5f4"/>
    <path d="m77.089844 32.148438c0 2.632812-2.136719 4.769531-4.769532 4.769531-2.632812 0-4.769531-2.136719-4.769531-4.769531 0-2.632813 2.136719-4.769532 4.769531-4.769532 2.632813 0 4.769532 2.136719 4.769532 4.769532z" fill="#5e5c64"/>
    <path d="m77.089844 30.222656c0 2.632813-2.136719 4.769532-4.769532 4.769532-2.632812 0-4.769531-2.136719-4.769531-4.769532 0-2.632812 2.136719-4.769531 4.769531-4.769531 2.632813 0 4.769532 2.136719 4.769532 4.769531z" fill="#f6f5f4"/>
    <g fill="none" stroke="#f6f5f4" stroke-linecap="round" stroke-linejoin="round" stroke-width="2">
        <path d="m30.222656 21.75h67.996094"/>
        <path d="m35.445312 21.9375v8.6875"/>
        <path d="m47.445312 21.9375v8.6875"/>
        <path d="m59.710938 21.9375v8.6875"/>
        <path d="m72.320312 21.9375v8.6875"/>
        <path d="m84.320312 21.9375v8.6875"/>
        <path d="m96.585938 21.9375v8.6875"/>
    </g>
    <path d="m61.9375 61.375c1.585938 0 2.875 1.007812 2.875 2.25v22.84375c0 1.246094-1.289062 2.253906-2.875 2.253906s-2.875-1.007812-2.875-2.253906v-22.84375c0-1.242188 1.289062-2.25 2.875-2.25z" fill="#f6f5f4"/>
    <path d="m17.808594 34.339844h91.746094v24.039062h-91.746094z" fill="url(#o)"/>
    <path d="m23.695312 99.515625v7.011719c0 0.042968-0.003906 0.085937 0 0.128906 0.050782 1.917969 1.265626 3.441406 2.765626 3.441406h19.046874c1.5 0 2.714844-1.523437 2.769532-3.441406h0.003906v-7.140625z" fill="url(#q)"/>
    <path d="m39.527344 103.97656c0 1.957032-1.585938 3.542969-3.539063 3.542969-1.957031 0-3.542969-1.585937-3.542969-3.542969 0-1.957031 1.585938-3.542968 3.542969-3.542968 1.953125 0 3.539063 1.585937 3.539063 3.542968z" fill="#241f31"/>
    <path d="m39.527344 105.64062c0 1.953125-1.585938 3.539063-3.539063 3.539063-1.957031 0-3.542969-1.585938-3.542969-3.539063 0-1.957031 1.585938-3.542969 3.542969-3.542969 1.953125 0 3.539063 1.585938 3.539063 3.542969z" fill="#986a44"/>
    <path d="m78.988281 99.515625v7.011719c0 0.042968-0.003906 0.085937 0 0.128906 0.050781 1.917969 1.265625 3.441406 2.765625 3.441406h19.046875c1.5 0 2.714844-1.523437 2.769531-3.441406h0.003907v-7.140625z" fill="url(#r)"/>
    <path d="m94.820312 103.97656c0 1.957032-1.585937 3.542969-3.539062 3.542969-1.957031 0-3.542969-1.585937-3.542969-3.542969 0-1.957031 1.585938-3.542968 3.542969-3.542968 1.953125 0 3.539062 1.585937 3.539062 3.542968z" fill="#241f31"/>
    <path d="m94.820312 105.64062c0 1.953125-1.585937 3.539063-3.539062 3.539063-1.957031 0-3.542969-1.585938-3.542969-3.539063 0-1.957031 1.585938-3.542969 3.542969-3.542969 1.953125 0 3.539062 1.585938 3.539062 3.542969z" fill="#986a44"/>
    <path d="m18.273438 65.773438h91.746093v24.039062h-91.746093z" fill="url(#s)"/>
</svg>
